<svg xmlns="http://www.w3.org/2000/svg" data-name="Layer 1" viewBox="0 0 24 30" x="0px" y="0px"><title>Artboard 100</title><path d="M17.75,12a5.747,5.747,0,0,0-11.2-1.828.9.9,0,0,0-.038.1,5.747,5.747,0,0,0,0,3.45.9.9,0,0,0,.038.1A5.747,5.747,0,0,0,17.75,12Zm-10,0a4.21,4.21,0,0,1,.076-.75H11.25v1.5H7.826A4.21,4.21,0,0,1,7.75,12Zm3.5-4.174V9.75H8.409A4.242,4.242,0,0,1,11.25,7.826ZM8.409,14.25H11.25v1.924A4.242,4.242,0,0,1,8.409,14.25Z"/><path d="M12.75,4V2a.75.75,0,0,0-1.5,0V4a.75.75,0,0,0,1.5,0Z"/><path d="M19.6,4.4a.75.75,0,0,0-1.061,0L17.127,5.813a.75.75,0,0,0,1.061,1.061L19.6,5.459A.75.75,0,0,0,19.6,4.4Z"/><path d="M22,11.25H20a.75.75,0,0,0,0,1.5h2a.75.75,0,0,0,0-1.5Z"/><path d="M18.541,19.6A.75.75,0,0,0,19.6,18.541l-1.414-1.415a.75.75,0,0,0-1.061,1.061Z"/><path d="M11.25,20v2a.75.75,0,0,0,1.5,0V20a.75.75,0,0,0-1.5,0Z"/><path d="M4.4,19.6a.752.752,0,0,0,1.061,0l1.414-1.415a.75.75,0,0,0-1.06-1.061L4.4,18.541A.75.75,0,0,0,4.4,19.6Z"/><path d="M1.25,12a.75.75,0,0,0,.75.75H4a.75.75,0,0,0,0-1.5H2A.75.75,0,0,0,1.25,12Z"/><path d="M6.873,6.874a.75.75,0,0,0,0-1.061L5.459,4.4A.75.75,0,0,0,4.4,5.459L5.813,6.874a.751.751,0,0,0,1.06,0Z"/><text x="0" y="39" fill="#000000" font-size="5px" font-weight="bold" font-family="'Helvetica Neue', Helvetica, Arial-Unicode, Arial, Sans-serif">Created by Anggara Putra</text><text x="0" y="44" fill="#000000" font-size="5px" font-weight="bold" font-family="'Helvetica Neue', Helvetica, Arial-Unicode, Arial, Sans-serif">from the Noun Project</text></svg>